<mxfile host="app.diagrams.net" agent="Mozilla/5.0 (Windows NT 10.0; Win64; x64) AppleWebKit/537.36 (KHTML, like Gecko) Chrome/139.0.0.0 Safari/537.36" version="27.1.6">
  <diagram name="第 1 页" id="x4WuO3qJ2syy_9p05yud">
    <mxGraphModel dx="1665" dy="890" grid="0" gridSize="10" guides="1" tooltips="1" connect="1" arrows="1" fold="1" page="1" pageScale="1" pageWidth="3300" pageHeight="4681" math="0" shadow="1">
      <root>
        <mxCell id="0" />
        <mxCell id="1" parent="0" />
        <mxCell id="Yd7G2oLsj9NPR8gorSdJ-31" style="rounded=0;orthogonalLoop=1;jettySize=auto;html=1;" parent="1" source="Yd7G2oLsj9NPR8gorSdJ-22" target="Yd7G2oLsj9NPR8gorSdJ-28" edge="1">
          <mxGeometry relative="1" as="geometry" />
        </mxCell>
        <mxCell id="Yd7G2oLsj9NPR8gorSdJ-22" value="" style="sketch=0;verticalLabelPosition=bottom;sketch=0;aspect=fixed;html=1;verticalAlign=top;strokeColor=none;fillColor=#000000;align=center;outlineConnect=0;pointerEvents=1;shape=mxgraph.citrix2.citrix_provisioning_server;" parent="1" vertex="1">
          <mxGeometry x="153" y="199" width="50" height="32.235" as="geometry" />
        </mxCell>
        <mxCell id="Yd7G2oLsj9NPR8gorSdJ-33" style="rounded=0;orthogonalLoop=1;jettySize=auto;html=1;" parent="1" source="Yd7G2oLsj9NPR8gorSdJ-23" target="Yd7G2oLsj9NPR8gorSdJ-28" edge="1">
          <mxGeometry relative="1" as="geometry" />
        </mxCell>
        <mxCell id="Yd7G2oLsj9NPR8gorSdJ-37" style="rounded=0;orthogonalLoop=1;jettySize=auto;html=1;" parent="1" source="Yd7G2oLsj9NPR8gorSdJ-23" target="Yd7G2oLsj9NPR8gorSdJ-29" edge="1">
          <mxGeometry relative="1" as="geometry" />
        </mxCell>
        <mxCell id="Yd7G2oLsj9NPR8gorSdJ-23" value="" style="sketch=0;verticalLabelPosition=bottom;sketch=0;aspect=fixed;html=1;verticalAlign=top;strokeColor=none;fillColor=#000000;align=center;outlineConnect=0;pointerEvents=1;shape=mxgraph.citrix2.citrix_provisioning_server;" parent="1" vertex="1">
          <mxGeometry x="383" y="199" width="50" height="32.235" as="geometry" />
        </mxCell>
        <mxCell id="Yd7G2oLsj9NPR8gorSdJ-32" style="edgeStyle=orthogonalEdgeStyle;rounded=0;orthogonalLoop=1;jettySize=auto;html=1;" parent="1" source="Yd7G2oLsj9NPR8gorSdJ-24" target="Yd7G2oLsj9NPR8gorSdJ-28" edge="1">
          <mxGeometry relative="1" as="geometry" />
        </mxCell>
        <mxCell id="Yd7G2oLsj9NPR8gorSdJ-36" style="rounded=0;orthogonalLoop=1;jettySize=auto;html=1;" parent="1" source="Yd7G2oLsj9NPR8gorSdJ-24" target="Yd7G2oLsj9NPR8gorSdJ-30" edge="1">
          <mxGeometry relative="1" as="geometry" />
        </mxCell>
        <mxCell id="Yd7G2oLsj9NPR8gorSdJ-24" value="" style="sketch=0;verticalLabelPosition=bottom;sketch=0;aspect=fixed;html=1;verticalAlign=top;strokeColor=none;fillColor=#000000;align=center;outlineConnect=0;pointerEvents=1;shape=mxgraph.citrix2.citrix_provisioning_server;" parent="1" vertex="1">
          <mxGeometry x="263" y="199" width="50" height="32.235" as="geometry" />
        </mxCell>
        <mxCell id="Yd7G2oLsj9NPR8gorSdJ-34" style="rounded=0;orthogonalLoop=1;jettySize=auto;html=1;" parent="1" target="Yd7G2oLsj9NPR8gorSdJ-28" edge="1">
          <mxGeometry relative="1" as="geometry">
            <mxPoint x="474" y="223" as="sourcePoint" />
          </mxGeometry>
        </mxCell>
        <mxCell id="Yd7G2oLsj9NPR8gorSdJ-38" style="rounded=0;orthogonalLoop=1;jettySize=auto;html=1;" parent="1" source="Yd7G2oLsj9NPR8gorSdJ-25" target="Yd7G2oLsj9NPR8gorSdJ-29" edge="1">
          <mxGeometry relative="1" as="geometry" />
        </mxCell>
        <mxCell id="Yd7G2oLsj9NPR8gorSdJ-25" value="" style="sketch=0;verticalLabelPosition=bottom;sketch=0;aspect=fixed;html=1;verticalAlign=top;strokeColor=none;fillColor=#000000;align=center;outlineConnect=0;pointerEvents=1;shape=mxgraph.citrix2.citrix_provisioning_server;" parent="1" vertex="1">
          <mxGeometry x="493" y="199" width="50" height="32.235" as="geometry" />
        </mxCell>
        <mxCell id="Yd7G2oLsj9NPR8gorSdJ-35" style="rounded=0;orthogonalLoop=1;jettySize=auto;html=1;" parent="1" source="Yd7G2oLsj9NPR8gorSdJ-26" target="Yd7G2oLsj9NPR8gorSdJ-28" edge="1">
          <mxGeometry relative="1" as="geometry" />
        </mxCell>
        <mxCell id="Yd7G2oLsj9NPR8gorSdJ-39" style="rounded=0;orthogonalLoop=1;jettySize=auto;html=1;" parent="1" source="Yd7G2oLsj9NPR8gorSdJ-26" target="Yd7G2oLsj9NPR8gorSdJ-30" edge="1">
          <mxGeometry relative="1" as="geometry" />
        </mxCell>
        <mxCell id="Yd7G2oLsj9NPR8gorSdJ-40" style="rounded=0;orthogonalLoop=1;jettySize=auto;html=1;" parent="1" source="Yd7G2oLsj9NPR8gorSdJ-26" target="Yd7G2oLsj9NPR8gorSdJ-29" edge="1">
          <mxGeometry relative="1" as="geometry" />
        </mxCell>
        <mxCell id="Yd7G2oLsj9NPR8gorSdJ-26" value="" style="sketch=0;verticalLabelPosition=bottom;sketch=0;aspect=fixed;html=1;verticalAlign=top;strokeColor=none;fillColor=#000000;align=center;outlineConnect=0;pointerEvents=1;shape=mxgraph.citrix2.citrix_provisioning_server;" parent="1" vertex="1">
          <mxGeometry x="613" y="199" width="50" height="32.235" as="geometry" />
        </mxCell>
        <mxCell id="Yd7G2oLsj9NPR8gorSdJ-42" style="rounded=0;orthogonalLoop=1;jettySize=auto;html=1;" parent="1" source="Yd7G2oLsj9NPR8gorSdJ-28" target="Yd7G2oLsj9NPR8gorSdJ-41" edge="1">
          <mxGeometry relative="1" as="geometry" />
        </mxCell>
        <mxCell id="Yd7G2oLsj9NPR8gorSdJ-28" value="" style="sketch=0;verticalLabelPosition=bottom;sketch=0;aspect=fixed;html=1;verticalAlign=top;strokeColor=none;fillColor=#000000;align=center;outlineConnect=0;pointerEvents=1;shape=mxgraph.citrix2.authentication_adaptive;" parent="1" vertex="1">
          <mxGeometry x="263" y="359" width="50" height="50" as="geometry" />
        </mxCell>
        <mxCell id="Yd7G2oLsj9NPR8gorSdJ-44" style="rounded=0;orthogonalLoop=1;jettySize=auto;html=1;" parent="1" source="Yd7G2oLsj9NPR8gorSdJ-29" target="Yd7G2oLsj9NPR8gorSdJ-41" edge="1">
          <mxGeometry relative="1" as="geometry" />
        </mxCell>
        <mxCell id="Yd7G2oLsj9NPR8gorSdJ-29" value="" style="sketch=0;verticalLabelPosition=bottom;sketch=0;aspect=fixed;html=1;verticalAlign=top;strokeColor=none;fillColor=#000000;align=center;outlineConnect=0;pointerEvents=1;shape=mxgraph.citrix2.authentication_adaptive;" parent="1" vertex="1">
          <mxGeometry x="523" y="359" width="50" height="50" as="geometry" />
        </mxCell>
        <mxCell id="Yd7G2oLsj9NPR8gorSdJ-43" style="rounded=0;orthogonalLoop=1;jettySize=auto;html=1;" parent="1" source="Yd7G2oLsj9NPR8gorSdJ-30" target="Yd7G2oLsj9NPR8gorSdJ-41" edge="1">
          <mxGeometry relative="1" as="geometry" />
        </mxCell>
        <mxCell id="Yd7G2oLsj9NPR8gorSdJ-30" value="" style="sketch=0;verticalLabelPosition=bottom;sketch=0;aspect=fixed;html=1;verticalAlign=top;strokeColor=none;fillColor=#000000;align=center;outlineConnect=0;pointerEvents=1;shape=mxgraph.citrix2.authentication_adaptive;" parent="1" vertex="1">
          <mxGeometry x="393" y="359" width="50" height="50" as="geometry" />
        </mxCell>
        <mxCell id="Yd7G2oLsj9NPR8gorSdJ-49" style="edgeStyle=orthogonalEdgeStyle;rounded=0;orthogonalLoop=1;jettySize=auto;html=1;" parent="1" source="Yd7G2oLsj9NPR8gorSdJ-41" target="Yd7G2oLsj9NPR8gorSdJ-46" edge="1">
          <mxGeometry relative="1" as="geometry" />
        </mxCell>
        <mxCell id="Yd7G2oLsj9NPR8gorSdJ-41" value="" style="sketch=0;verticalLabelPosition=bottom;sketch=0;aspect=fixed;html=1;verticalAlign=top;strokeColor=none;fillColor=#000000;align=center;outlineConnect=0;pointerEvents=1;shape=mxgraph.citrix2.site_database;" parent="1" vertex="1">
          <mxGeometry x="393" y="449" width="45.395" height="50" as="geometry" />
        </mxCell>
        <mxCell id="Yd7G2oLsj9NPR8gorSdJ-45" value="" style="endArrow=none;html=1;rounded=0;" parent="1" edge="1">
          <mxGeometry width="50" height="50" relative="1" as="geometry">
            <mxPoint x="143" y="174" as="sourcePoint" />
            <mxPoint x="678" y="177" as="targetPoint" />
          </mxGeometry>
        </mxCell>
        <mxCell id="Yd7G2oLsj9NPR8gorSdJ-47" style="edgeStyle=orthogonalEdgeStyle;rounded=0;orthogonalLoop=1;jettySize=auto;html=1;" parent="1" source="Yd7G2oLsj9NPR8gorSdJ-46" target="Yd7G2oLsj9NPR8gorSdJ-41" edge="1">
          <mxGeometry relative="1" as="geometry" />
        </mxCell>
        <mxCell id="Yd7G2oLsj9NPR8gorSdJ-46" value="" style="sketch=0;verticalLabelPosition=bottom;sketch=0;aspect=fixed;html=1;verticalAlign=top;strokeColor=none;fillColor=#000000;align=center;outlineConnect=0;pointerEvents=1;shape=mxgraph.citrix2.site_database;" parent="1" vertex="1">
          <mxGeometry x="288" y="449" width="45.395" height="50" as="geometry" />
        </mxCell>
        <mxCell id="Yd7G2oLsj9NPR8gorSdJ-50" value="OS" style="text;html=1;align=center;verticalAlign=middle;resizable=0;points=[];autosize=1;strokeColor=none;fillColor=none;" parent="1" vertex="1">
          <mxGeometry x="84" y="202.12" width="35" height="26" as="geometry" />
        </mxCell>
        <mxCell id="Yd7G2oLsj9NPR8gorSdJ-51" value="Authen-Server" style="text;html=1;align=center;verticalAlign=middle;resizable=0;points=[];autosize=1;strokeColor=none;fillColor=none;" parent="1" vertex="1">
          <mxGeometry x="77" y="363" width="95" height="26" as="geometry" />
        </mxCell>
        <mxCell id="Yd7G2oLsj9NPR8gorSdJ-52" value="DataBase" style="text;html=1;align=center;verticalAlign=middle;resizable=0;points=[];autosize=1;strokeColor=none;fillColor=none;" parent="1" vertex="1">
          <mxGeometry x="81" y="461" width="71" height="26" as="geometry" />
        </mxCell>
        <mxCell id="Yd7G2oLsj9NPR8gorSdJ-53" value="" style="sketch=0;verticalLabelPosition=bottom;sketch=0;aspect=fixed;html=1;verticalAlign=top;strokeColor=none;fillColor=#000000;align=center;outlineConnect=0;pointerEvents=1;shape=mxgraph.citrix2.external_users;" parent="1" vertex="1">
          <mxGeometry x="372" y="98" width="48.449999999999996" height="50" as="geometry" />
        </mxCell>
        <mxCell id="pXe-Me0gvShqMi8IRUfx-7" style="edgeStyle=none;curved=1;rounded=0;orthogonalLoop=1;jettySize=auto;html=1;entryX=0;entryY=0.5;entryDx=0;entryDy=0;fontSize=12;startSize=8;endSize=8;" edge="1" parent="1" source="pXe-Me0gvShqMi8IRUfx-5" target="pXe-Me0gvShqMi8IRUfx-6">
          <mxGeometry relative="1" as="geometry" />
        </mxCell>
        <mxCell id="pXe-Me0gvShqMi8IRUfx-5" value="" style="sketch=0;verticalLabelPosition=bottom;sketch=0;aspect=fixed;html=1;verticalAlign=top;strokeColor=none;fillColor=#000000;align=center;outlineConnect=0;pointerEvents=1;shape=mxgraph.citrix2.authentication_adaptive;" vertex="1" parent="1">
          <mxGeometry x="918" y="257" width="91.24" height="91.24" as="geometry" />
        </mxCell>
        <mxCell id="pXe-Me0gvShqMi8IRUfx-10" value="" style="edgeStyle=none;curved=1;rounded=0;orthogonalLoop=1;jettySize=auto;html=1;fontSize=12;startSize=8;endSize=8;" edge="1" parent="1" source="pXe-Me0gvShqMi8IRUfx-6" target="pXe-Me0gvShqMi8IRUfx-9">
          <mxGeometry relative="1" as="geometry" />
        </mxCell>
        <mxCell id="pXe-Me0gvShqMi8IRUfx-6" value="config / 公钥" style="rounded=1;whiteSpace=wrap;html=1;" vertex="1" parent="1">
          <mxGeometry x="1082.5" y="132" width="120" height="60" as="geometry" />
        </mxCell>
        <mxCell id="pXe-Me0gvShqMi8IRUfx-8" value="init" style="text;html=1;align=center;verticalAlign=middle;resizable=0;points=[];autosize=1;strokeColor=none;fillColor=none;fontSize=16;" vertex="1" parent="1">
          <mxGeometry x="1022" y="213.5" width="38" height="31" as="geometry" />
        </mxCell>
        <mxCell id="pXe-Me0gvShqMi8IRUfx-12" value="" style="edgeStyle=none;curved=1;rounded=0;orthogonalLoop=1;jettySize=auto;html=1;fontSize=12;startSize=8;endSize=8;" edge="1" parent="1" source="pXe-Me0gvShqMi8IRUfx-9" target="pXe-Me0gvShqMi8IRUfx-11">
          <mxGeometry relative="1" as="geometry" />
        </mxCell>
        <mxCell id="pXe-Me0gvShqMi8IRUfx-9" value="写入sqlite数据库" style="whiteSpace=wrap;html=1;rounded=1;" vertex="1" parent="1">
          <mxGeometry x="1276.5" y="132" width="120" height="60" as="geometry" />
        </mxCell>
        <mxCell id="pXe-Me0gvShqMi8IRUfx-11" value="启动web服务" style="whiteSpace=wrap;html=1;rounded=1;" vertex="1" parent="1">
          <mxGeometry x="1447.5" y="132" width="120" height="60" as="geometry" />
        </mxCell>
        <mxCell id="pXe-Me0gvShqMi8IRUfx-16" style="edgeStyle=none;curved=1;rounded=0;orthogonalLoop=1;jettySize=auto;html=1;fontSize=12;startSize=8;endSize=8;" edge="1" parent="1" source="pXe-Me0gvShqMi8IRUfx-15" target="pXe-Me0gvShqMi8IRUfx-5">
          <mxGeometry relative="1" as="geometry" />
        </mxCell>
        <mxCell id="pXe-Me0gvShqMi8IRUfx-15" value="" style="sketch=0;verticalLabelPosition=bottom;sketch=0;aspect=fixed;html=1;verticalAlign=top;strokeColor=none;fillColor=#000000;align=center;outlineConnect=0;pointerEvents=1;shape=mxgraph.citrix2.citrix_provisioning_server;" vertex="1" parent="1">
          <mxGeometry x="1210" y="304.14" width="91.31" height="58.86" as="geometry" />
        </mxCell>
        <mxCell id="pXe-Me0gvShqMi8IRUfx-17" value="auth/renew" style="text;html=1;align=center;verticalAlign=middle;resizable=0;points=[];autosize=1;strokeColor=none;fillColor=none;fontSize=16;" vertex="1" parent="1">
          <mxGeometry x="1076" y="287.12" width="97" height="31" as="geometry" />
        </mxCell>
      </root>
    </mxGraphModel>
  </diagram>
</mxfile>
